<?xml version="1.0" encoding="UTF-8"?>
<svg id="Layer_2" data-name="Layer 2" xmlns="http://www.w3.org/2000/svg" viewBox="0 0 19.94 14.79">
  <g id="Layer_1-2" data-name="Layer 1">
    <g>
      <path d="M10.15,0c-1.93,0-3.5,1.57-3.5,3.5s1.57,3.5,3.5,3.5,3.5-1.56,3.5-3.5-1.56-3.5-3.5-3.5Zm0,6c-1.38,0-2.5-1.11-2.5-2.5s1.12-2.5,2.5-2.5,2.5,1.12,2.5,2.5-1.12,2.5-2.5,2.5Z"/>
      <path d="M6.21,8.92c-.74,.58-1.36,1.31-1.79,2.16h1.16c.32-.52,.74-.97,1.22-1.35-.15-.3-.35-.58-.59-.81Zm10.47,4.87c-.03-.74-.18-1.45-.45-2.11-.07-.21-.16-.41-.27-.6-.48-.94-1.18-1.74-2.04-2.34-.17-.13-.34-.24-.53-.33-.94-.54-2.04-.85-3.2-.85-1.28,0-2.47,.37-3.48,1.01-.17,.1-.34,.22-.5,.35-.74,.58-1.36,1.31-1.79,2.16-.11,.19-.2,.39-.27,.6-.27,.66-.42,1.37-.45,2.11-.01,.09-.01,.18-.01,.27,0,.25,.01,.49,.04,.73h12.92c.03-.24,.04-.48,.04-.73,0-.09,0-.18-.01-.27Zm-11.98,0c.04-.75,.22-1.47,.53-2.11,.1-.21,.22-.41,.35-.6,.32-.52,.74-.97,1.22-1.35,.16-.12,.33-.24,.5-.34,.84-.53,1.83-.83,2.89-.83,.92,0,1.79,.23,2.56,.64,.18,.08,.35,.18,.51,.3,.62,.41,1.15,.95,1.55,1.58,.13,.19,.24,.39,.34,.6,.31,.64,.49,1.36,.53,2.11H4.7Z"/>
      <g>
        <path d="M16.03,2.83c-1.16,0-2.1,.94-2.1,2.1s.94,2.09,2.1,2.09,2.09-.93,2.09-2.09-.93-2.1-2.09-2.1Zm0,3.59c-.83,0-1.5-.66-1.5-1.49s.67-1.5,1.5-1.5,1.49,.67,1.49,1.5-.67,1.49-1.49,1.49Z"/>
        <path d="M19.93,11.08c-.08-2.08-1.78-3.73-3.88-3.73-1.04,0-1.96,.4-2.66,1.06-.25,.23-.47,.5-.64,.79,.18,.08,.35,.18,.51,.3,.18-.29,.41-.55,.66-.76,.58-.5,1.33-.79,2.13-.79,1.77,0,3.2,1.38,3.29,3.13h-4.53c.13,.19,.24,.39,.34,.6h4.77c.01-.15,.02-.29,.02-.44,0-.05,0-.11-.01-.16Z"/>
      </g>
      <g>
        <path d="M3.86,2.83c-1.16,0-2.1,.94-2.1,2.1s.94,2.09,2.1,2.09,2.09-.93,2.09-2.09-.93-2.1-2.09-2.1Zm0,3.59c-.83,0-1.5-.66-1.5-1.49s.67-1.5,1.5-1.5,1.49,.67,1.49,1.5-.67,1.49-1.49,1.49Z"/>
        <path d="M6.71,8.57c-.71-.75-1.71-1.22-2.83-1.22C1.79,7.35,.09,9,0,11.08v.16c0,.15,0,.29,.02,.44H5.23c.1-.21,.22-.41,.35-.6H.6c.08-1.75,1.53-3.13,3.28-3.13,.92,0,1.74,.37,2.33,.97,.24,.23,.44,.51,.59,.81,.16-.12,.33-.24,.5-.34-.16-.3-.36-.58-.59-.82Z"/>
      </g>
    </g>
  </g>
</svg>