<?xml version="1.0" encoding="UTF-8"?>
<svg id="Layer_2" data-name="Layer 2" xmlns="http://www.w3.org/2000/svg" viewBox="0 0 19.54 20">
  <g id="Layer_1-2" data-name="Layer 1">
    <g>
      <path d="M19.54,10.54c-.19,1.1-.55,2.63-1.32,4.29-.98,2.1-2.2,3.49-3.03,4.29-.36-.31-.83-.75-1.3-1.33-.04-.04-.08-.08-.11-.12-.2-.24-.41-.51-.6-.8-.07-.09-.13-.18-.19-.28-.35-.51-.68-1.1-.97-1.76-.78-1.68-1.07-3.24-1.18-4.29,.58-.11,1.34-.29,2.16-.59,.08-.02,.15-.05,.23-.08,.01,0,.01-.01,.02-.01,.22-.09,.42-.17,.61-.26,.05-.02,.09-.05,.14-.07,.52-.25,.91-.5,1.19-.7,.33,.27,.9,.67,1.79,1.03,.98,.41,1.94,.6,2.56,.68Z"/>
      <path d="M13.25,9.86s-.01,.01-.02,.01c-.08,.03-.15,.06-.23,.08v6.42c0,.07,0,.15-.01,.22,.06,.1,.12,.19,.19,.28,.19,.29,.4,.56,.6,.8,.03,.04,.07,.08,.11,.12,.07-.25,.11-.52,.11-.79v-7.47s-.09,.05-.14,.07c-.19,.09-.39,.17-.61,.26ZM11,0H3C1.34,0,0,1.34,0,3v14c0,1.66,1.34,3,3,3H11c1.2,0,2.23-.7,2.71-1.72-.04-.04-.08-.08-.11-.12-.23-.27-.47-.58-.68-.91-.02-.02-.03-.04-.05-.07-.34,1.06-1.33,1.82-2.5,1.82H3.64c-1.46,0-2.64-1.18-2.64-2.63V3.64c0-1.46,1.18-2.64,2.64-2.64h6.73c1.45,0,2.63,1.18,2.63,2.64v5.68c.25-.11,.47-.2,.69-.3,.11-.05,.21-.1,.31-.15V3c0-1.66-1.34-3-3-3Z"/>
      <path d="M19.54,10.54c-.19,1.1-.55,2.63-1.32,4.29-.98,2.1-2.2,3.49-3.03,4.29-.36-.31-.83-.75-1.3-1.33-.04-.04-.08-.08-.11-.12-.2-.24-.41-.51-.6-.8-.07-.09-.13-.18-.19-.28-.35-.51-.68-1.1-.97-1.76-.78-1.68-1.07-3.24-1.18-4.29,.58-.11,1.34-.29,2.16-.59,.08-.02,.15-.05,.23-.08,.01,0,.01-.01,.02-.01,.22-.09,.42-.17,.61-.26,.05-.02,.09-.05,.14-.07,.52-.25,.91-.5,1.19-.7,.33,.27,.9,.67,1.79,1.03,.98,.41,1.94,.6,2.56,.68Z"/>
      <rect x="3" y="3" width="5" height="1"/>
      <rect x="3" y="6" width="8" height="1"/>
      <rect x="3" y="8" width="8" height="1"/>
      <rect x="3" y="10" width="6" height="1"/>
    </g>
  </g>
</svg>