<?xml version="1.0" encoding="UTF-8"?>
<svg id="Layer_2" data-name="Layer 2" xmlns="http://www.w3.org/2000/svg" viewBox="0 0 13 20">
  <g id="Layer_1-2" data-name="Layer 1">
    <path d="M.91,10.04h-.04l5.61,9.96,5.62-9.96c.72-1.25,1.06-2.75,.84-4.35C12.52,2.73,10.14,.37,7.25,.04,3.32-.4,0,2.73,0,6.66c0,1.24,.33,2.4,.91,3.39ZM7.37,2.76c1.47,.33,2.66,1.56,2.95,3.07,.34,1.77-.45,3.37-1.76,4.21-.6,.39-1.3,.61-2.06,.61s-1.46-.22-2.06-.61c-1.11-.71-1.84-1.96-1.84-3.39,0-2.49,2.24-4.46,4.77-3.9Z"/>
  </g>
</svg>