<?xml version="1.0" encoding="UTF-8"?>
<svg id="Layer_2" data-name="Layer 2" xmlns="http://www.w3.org/2000/svg" viewBox="0 0 20 20">
  <g id="Layer_1-2" data-name="Layer 1">
    <g>
      <path d="M17,0H3C1.34,0,0,1.34,0,3v14c0,1.66,1.34,3,3,3h14c1.66,0,3-1.34,3-3V3c0-1.66-1.34-3-3-3Zm2,16.66c0,1.29-1.05,2.34-2.34,2.34H3.34c-1.29,0-2.34-1.05-2.34-2.34V3.34c0-1.29,1.05-2.34,2.34-2.34h13.32c1.29,0,2.34,1.05,2.34,2.34v13.32Z"/>
      <path d="M9.1,9.86c.22-.38,.58-.67,1.08-.84,.37-.15,.65-.32,.83-.52,.18-.19,.27-.42,.27-.68,0-.34-.11-.61-.34-.8s-.54-.29-.94-.29-.73,.12-.97,.35-.36,.55-.36,.95h-2.05c-.03-.65,.08-1.23,.36-1.75s.67-.92,1.19-1.21c.52-.29,1.12-.43,1.79-.43,.7,0,1.31,.13,1.83,.39,.52,.26,.92,.63,1.2,1.11,.28,.48,.42,1.05,.42,1.71,0,.6-.14,1.1-.43,1.51-.28,.41-.71,.74-1.29,1-.31,.14-.54,.3-.67,.49s-.2,.44-.2,.75v.37h-2.04v-.57c0-.65,.11-1.16,.34-1.55Zm-.14,5.14c-.22-.24-.32-.54-.32-.91s.11-.67,.32-.91,.49-.36,.82-.36,.61,.12,.83,.35c.21,.23,.32,.54,.32,.92s-.11,.67-.32,.91c-.22,.24-.49,.36-.82,.36s-.6-.12-.82-.36Z"/>
    </g>
  </g>
</svg>