<?xml version="1.0" encoding="UTF-8"?>
<svg id="Layer_2" data-name="Layer 2" xmlns="http://www.w3.org/2000/svg" viewBox="0 0 20 16">
  <g id="Layer_1-2" data-name="Layer 1">
    <g>
      <path d="M17,0H3C1.35,0,0,1.34,0,3v6c0,1.66,1.35,3,3,3H13.67c1,1.33,2,2.67,3,4,.02-1.33,.04-2.66,.06-4h.27c1.66,0,3-1.34,3-3V3c0-1.66-1.34-3-3-3Zm2,8.64c0,1.3-1.05,2.36-2.35,2.36H3.36c-1.3,0-2.36-1.06-2.36-2.36V3.36c0-1.3,1.06-2.36,2.36-2.36h13.29c1.3,0,2.35,1.06,2.35,2.36v5.28Z"/>
      <rect x="3" y="3" width="8" height="1"/>
      <rect x="3" y="5" width="14" height="1"/>
      <rect x="3" y="7" width="14" height="1"/>
    </g>
  </g>
</svg>