<?xml version="1.0" encoding="UTF-8"?>
<svg id="Layer_2" data-name="Layer 2" xmlns="http://www.w3.org/2000/svg" viewBox="0 0 20 12">
  <g id="Layer_1-2" data-name="Layer 1">
    <g>
      <path d="M0,0V3.01s.09,0,.13,0c.3,0,.6,.05,.87,.13,1.24,.37,2.13,1.51,2.13,2.87s-.89,2.5-2.13,2.87c-.27,.08-.57,.13-.87,.13-.04,0-.09,0-.13-.01v3.01H20v-3.04c-.15,.03-.3,.04-.46,.04-.18,0-.36-.02-.54-.05-1.4-.25-2.46-1.48-2.46-2.95s1.06-2.7,2.46-2.95c.18-.03,.36-.05,.54-.05,.16,0,.31,0,.46,.04V0H0ZM15.54,6c0,2.03,1.51,3.7,3.46,3.96v1.04H1v-1.1c1.79-.4,3.13-1.99,3.13-3.9S2.79,2.5,1,2.1V1H19v1.04c-1.95,.26-3.46,1.93-3.46,3.96Z"/>
      <path d="M6.27,5.25c-.33-.31-.49-.72-.49-1.22s.16-.9,.49-1.21c.33-.31,.75-.46,1.27-.46s.96,.15,1.29,.46,.48,.71,.48,1.22-.16,.91-.49,1.22-.75,.46-1.28,.46-.94-.16-1.27-.47Zm5.18-2.82h1.54l-4.74,7.28h-1.54L11.45,2.43Zm-3.49,2.02c.11-.11,.16-.25,.16-.42s-.05-.31-.16-.42c-.11-.11-.25-.16-.42-.16s-.31,.05-.42,.16c-.1,.11-.16,.25-.16,.42s.05,.31,.16,.42c.1,.11,.24,.16,.42,.16s.31-.05,.42-.16Zm2.93,4.87c-.33-.31-.49-.71-.49-1.21s.16-.9,.49-1.22c.33-.31,.75-.47,1.27-.47s.95,.15,1.28,.46c.33,.31,.49,.72,.49,1.22s-.16,.91-.48,1.22c-.32,.31-.75,.46-1.28,.46s-.94-.15-1.27-.46Zm1.69-.79c.11-.11,.16-.25,.16-.42s-.05-.31-.16-.42c-.11-.11-.25-.16-.42-.16s-.31,.05-.42,.16c-.1,.11-.16,.25-.16,.42s.05,.31,.16,.42c.1,.11,.24,.16,.42,.16s.31-.05,.42-.16Z"/>
    </g>
  </g>
</svg>