<?xml version="1.0" encoding="UTF-8"?>
<svg id="Layer_2" data-name="Layer 2" xmlns="http://www.w3.org/2000/svg" viewBox="0 0 20 15.5">
  <g id="Layer_1-2" data-name="Layer 1">
    <g>
      <path d="M15,0h-2.5V1h2.08l1.92,1.92v3.26l-2.82,2.82h-3.87V3H5.48C2.73,3,.5,5.23,.5,7.98v2.02H14.1l3.4-3.4V2.5L15,0Zm-6.19,9H1.5v-1.12c0-2.14,1.74-3.88,3.88-3.88h3.43v5Z"/>
      <path d="M3,9.5c-1.65,0-3,1.35-3,3s1.35,3,3,3,3-1.34,3-3-1.34-3-3-3Zm0,5c-1.1,0-2-.89-2-2s.9-2,2-2,2,.9,2,2-.89,2-2,2Z"/>
      <path d="M17,9.5c-1.65,0-3,1.35-3,3s1.35,3,3,3,3-1.34,3-3-1.34-3-3-3Zm0,5c-1.1,0-2-.89-2-2s.9-2,2-2,2,.9,2,2-.89,2-2,2Z"/>
      <rect x="5.5" y="1" width="4" height="1"/>
    </g>
  </g>
</svg>