<svg width="12" height="14" viewBox="0 0 12 14" fill="none" xmlns="http://www.w3.org/2000/svg">
<path fill-rule="evenodd" clip-rule="evenodd" d="M11.428 6.5165C11.7122 6.94427 11.8752 7.43993 11.9 7.9516L11.8814 8.08095C11.9028 8.78116 11.6691 9.46558 11.2231 10.0088C10.6535 10.6234 9.87486 11.0073 9.037 11.0867C6.97317 11.3132 4.89043 11.3132 2.82659 11.0867C2.00098 11.0019 1.2359 10.6181 0.67779 10.0088C0.224431 9.47337 -0.016277 8.79224 0.000855454 8.09327V8.00704C0.0349998 7.48005 0.210844 6.97175 0.510109 6.53497L0.559792 6.47338C0.871021 6.12313 1.08504 5.69861 1.18083 5.24153V4.71183V3.97272C1.2689 3.75021 1.49632 3.61377 1.73592 3.63969C1.97552 3.66561 2.16793 3.84748 2.20555 4.08359V4.69952V5.3524C2.20797 5.37492 2.20797 5.39763 2.20555 5.42015C2.07624 6.05558 1.78067 6.64609 1.34851 7.13242C1.18209 7.39534 1.08788 7.69686 1.07526 8.00704V8.14254C1.06147 8.5788 1.20703 9.00532 1.48514 9.3436C1.87073 9.73859 2.38635 9.98334 2.93838 10.0334C4.93638 10.249 6.95206 10.249 8.95005 10.0334C9.51717 9.98181 10.0454 9.72535 10.4343 9.3128C10.6988 8.98251 10.8373 8.5703 10.8256 8.1487V8.00704C10.8129 7.69582 10.721 7.39284 10.5585 7.12626C10.1084 6.64545 9.79545 6.05445 9.65183 5.41399C9.64942 5.39147 9.64942 5.36876 9.65183 5.34624V4.6872V4.07127C9.47173 2.21117 7.6024 1.05939 5.97527 1.05939C5.2835 1.05782 4.60311 1.23394 4.00036 1.57061C3.83346 1.67011 3.62518 1.67164 3.45682 1.5746C3.28845 1.47756 3.18669 1.29733 3.19124 1.10425C3.19579 0.911176 3.30593 0.735857 3.47868 0.646722C4.22558 0.22825 5.06776 0.0056579 5.92559 0C8.07439 0 10.484 1.51518 10.7573 3.94809V4.67488V5.21689C10.8506 5.67483 11.0649 6.09996 11.3783 6.44875C11.3969 6.46981 11.4135 6.49249 11.428 6.5165ZM6.12615 12.9016C6.4911 12.8472 6.81908 12.6507 7.03732 12.3555H7.04353C7.23217 12.1293 7.57 12.0976 7.79809 12.2847C8.02618 12.4718 8.05816 12.8068 7.86951 13.033C7.40446 13.6362 6.68498 13.9929 5.91944 14C5.15609 13.991 4.4393 13.6345 3.97559 13.033C3.78694 12.8068 3.81892 12.4718 4.047 12.2847C4.27509 12.0976 4.61292 12.1293 4.80157 12.3555C4.88442 12.4653 4.98271 12.5628 5.09346 12.645C5.38947 12.8636 5.7612 12.9559 6.12615 12.9016Z" fill="black"/>
</svg>
