<?xml version="1.0" encoding="UTF-8"?>
<svg id="Layer_2" data-name="Layer 2" xmlns="http://www.w3.org/2000/svg" viewBox="0 0 17.92 20">
  <g id="Layer_1-2" data-name="Layer 1">
    <path d="M14.96,1.29V.12s0-.08-.01-.12H2.97s-.01,.08-.01,.12V1.29C1.32,1.29,0,2.61,0,4.25s1.32,2.96,2.96,2.96c.27,0,.54-.04,.79-.11,.96,1.67,2.69,2.83,4.71,3v6.9h-.8c-.38,0-.69,.31-.69,.69v.31h-.16c-.46,0-.84,.38-.84,.84v1.16h6v-1.16c0-.46-.38-.84-.84-.84h-.16v-.31c0-.38-.31-.69-.69-.69h-.82v-6.9c2.02-.17,3.75-1.33,4.7-3,.25,.07,.52,.11,.8,.11,1.63,0,2.96-1.33,2.96-2.96s-1.33-2.96-2.96-2.96ZM2.96,6.55c-1.28,0-2.31-1.03-2.31-2.3S1.68,1.95,2.96,1.95v2.17c0,.84,.17,1.64,.49,2.37-.16,.04-.32,.06-.49,.06ZM13.96,3.88c0,.77-.16,1.51-.45,2.17-.09,.2-.19,.39-.3,.58-.79,1.35-2.16,2.3-3.75,2.46-.16,.02-.33,.03-.5,.03s-.34-.01-.5-.03c-1.59-.16-2.96-1.11-3.75-2.46-.12-.19-.22-.39-.3-.59-.29-.66-.45-1.39-.45-2.16V1H13.96V3.88Zm1,2.67c-.17,0-.33-.02-.49-.05,.32-.73,.49-1.53,.49-2.38V1.95c1.26,0,2.3,1.02,2.3,2.3s-1.04,2.3-2.3,2.3Z"/>
  </g>
</svg>