<?xml version="1.0" encoding="UTF-8"?>
<svg id="Layer_2" data-name="Layer 2" xmlns="http://www.w3.org/2000/svg" viewBox="0 0 20 20">
  <g id="Layer_1-2" data-name="Layer 1">
    <g>
      <path d="M7.47,0H1.87C.84,0,0,.84,0,1.87V12.13c0,1.03,.84,1.87,1.87,1.87H7.47c1.03,0,1.87-.84,1.87-1.87V1.87c0-1.03-.84-1.87-1.87-1.87Zm.93,11.91c0,.64-.51,1.16-1.16,1.16H2.09c-.64,0-1.16-.51-1.16-1.16V2.09c0-.64,.51-1.16,1.16-1.16H7.24c.64,0,1.16,.51,1.16,1.16V11.91Z"/>
      <path d="M18,5h-6c-1.1,0-2,.9-2,2v11c0,1.1,.9,2,2,2h6c1.1,0,2-.9,2-2V7c0-1.1-.9-2-2-2Zm1,12.76c0,.69-.55,1.24-1.24,1.24h-5.52c-.69,0-1.24-.55-1.24-1.24V7.24c0-.69,.55-1.24,1.24-1.24h5.52c.69,0,1.24,.55,1.24,1.24v10.52Z"/>
      <rect x="1.87" y="1.87" width="2.8" height=".93"/>
      <rect x="1.87" y="3.73" width="5.6" height=".93"/>
      <rect x="1.87" y="5.6" width="4.67" height=".93"/>
      <rect x="12" y="7" width="4" height="1"/>
      <rect x="12" y="9" width="6" height="1"/>
      <rect x="12" y="11" width="6" height="1"/>
      <rect x="12" y="13" width="6" height="1"/>
      <rect x="15" y="15" width="3" height="1"/>
      <rect x="1.87" y="7.47" width="3.73" height=".93"/>
      <g>
        <path d="M5.74,17.31c-.48,0-.86-.38-.86-.85v-1.46h-.68v1.63c0,.75,.62,1.37,1.37,1.37h1.43v-.69h-1.26Z"/>
        <polygon points="8.52 17.5 5.92 16 5.92 19 8.52 17.5"/>
      </g>
      <g>
        <path d="M13.29,2.29c.48,0,.86,.38,.86,.85v1.46h.68v-1.63c0-.75-.62-1.37-1.37-1.37h-1.43v.69h1.26Z"/>
        <polygon points="10.51 2.1 13.11 3.6 13.11 .6 10.51 2.1"/>
      </g>
    </g>
  </g>
</svg>