<svg width="325" height="50" viewBox="0 0 325 50" fill="none" xmlns="http://www.w3.org/2000/svg">
<rect x="275" width="50" height="50" rx="13" fill="black"/>
<path fill-rule="evenodd" clip-rule="evenodd" d="M297.803 20.8507C297.803 22.4257 296.505 23.7022 294.902 23.7022C293.299 23.7022 292 22.4257 292 20.8507C292 19.2766 293.299 18 294.902 18C296.505 18 297.803 19.2766 297.803 20.8507ZM307.604 19.6017C308.305 19.6017 308.875 20.1617 308.875 20.8507C308.875 21.5405 308.305 22.1005 307.604 22.1005H302.056C301.353 22.1005 300.783 21.5405 300.783 20.8507C300.783 20.1617 301.353 19.6017 302.056 19.6017H307.604ZM293.272 28.9333H298.82C299.522 28.9333 300.092 29.4933 300.092 30.1832C300.092 30.8721 299.522 31.433 298.82 31.433H293.272C292.57 31.433 292 30.8721 292 30.1832C292 29.4933 292.57 28.9333 293.272 28.9333ZM305.973 33C307.577 33 308.875 31.7234 308.875 30.1493C308.875 28.5743 307.577 27.2978 305.973 27.2978C304.371 27.2978 303.072 28.5743 303.072 30.1493C303.072 31.7234 304.371 33 305.973 33Z" fill="white"/>
<rect width="260" height="50" rx="13" fill="#F5F5F5"/>
<path d="M52.49 27.018H53.792C53.8293 27.382 53.9553 27.7087 54.17 27.998C54.394 28.2873 54.6973 28.516 55.08 28.684C55.4627 28.852 55.9013 28.936 56.396 28.936C56.8347 28.936 57.1987 28.88 57.488 28.768C57.7867 28.6467 58.006 28.4787 58.146 28.264C58.2953 28.0493 58.37 27.802 58.37 27.522C58.37 27.2327 58.286 27.004 58.118 26.836C57.9593 26.6587 57.7213 26.514 57.404 26.402C57.0867 26.2807 56.69 26.164 56.214 26.052C55.8033 25.9587 55.3973 25.842 54.996 25.702C54.5947 25.5527 54.226 25.3707 53.89 25.156C53.5633 24.9413 53.2973 24.68 53.092 24.372C52.896 24.064 52.798 23.6953 52.798 23.266C52.798 22.8087 52.924 22.3933 53.176 22.02C53.4373 21.6373 53.8153 21.334 54.31 21.11C54.8047 20.8767 55.402 20.76 56.102 20.76C57.194 20.76 58.02 21.0307 58.58 21.572C59.14 22.1133 59.4107 22.8367 59.392 23.742H58.104C58.0853 23.1167 57.8847 22.6687 57.502 22.398C57.1287 22.118 56.6433 21.978 56.046 21.978C55.5327 21.978 55.0893 22.0807 54.716 22.286C54.352 22.4913 54.17 22.8227 54.17 23.28C54.17 23.476 54.212 23.6487 54.296 23.798C54.38 23.938 54.52 24.0687 54.716 24.19C54.912 24.302 55.178 24.414 55.514 24.526C55.85 24.638 56.2653 24.7593 56.76 24.89C57.1427 24.974 57.5067 25.0813 57.852 25.212C58.2067 25.3427 58.524 25.506 58.804 25.702C59.0933 25.898 59.3173 26.15 59.476 26.458C59.644 26.7567 59.728 27.1347 59.728 27.592C59.728 28.068 59.6113 28.502 59.378 28.894C59.1447 29.2767 58.7807 29.5847 58.286 29.818C57.7913 30.042 57.152 30.154 56.368 30.154C55.752 30.154 55.2153 30.0793 54.758 29.93C54.3007 29.7713 53.918 29.566 53.61 29.314C53.3113 29.0527 53.0733 28.782 52.896 28.502C52.728 28.2127 52.6113 27.9373 52.546 27.676C52.4807 27.4053 52.462 27.186 52.49 27.018ZM66.5852 27.732H67.8732C67.7985 28.1893 67.6212 28.6 67.3412 28.964C67.0705 29.328 66.7018 29.6173 66.2352 29.832C65.7778 30.0467 65.2365 30.154 64.6112 30.154C63.8832 30.154 63.2298 30.0047 62.6512 29.706C62.0725 29.398 61.6198 28.9733 61.2932 28.432C60.9665 27.8813 60.8032 27.2467 60.8032 26.528C60.8032 25.8 60.9618 25.1653 61.2792 24.624C61.5965 24.0733 62.0352 23.644 62.5952 23.336C63.1645 23.028 63.8132 22.874 64.5412 22.874C65.3065 22.874 65.9458 23.0233 66.4592 23.322C66.9725 23.6207 67.3552 24.064 67.6072 24.652C67.8592 25.2307 67.9618 25.954 67.9152 26.822H62.1612C62.2078 27.242 62.3338 27.6153 62.5392 27.942C62.7538 28.2687 63.0338 28.5253 63.3792 28.712C63.7338 28.8893 64.1398 28.978 64.5972 28.978C65.1105 28.978 65.5398 28.866 65.8852 28.642C66.2398 28.4087 66.4732 28.1053 66.5852 27.732ZM64.5412 24.036C63.9345 24.036 63.4305 24.1993 63.0292 24.526C62.6278 24.8433 62.3618 25.2633 62.2312 25.786H66.5432C66.5058 25.226 66.3005 24.7967 65.9272 24.498C65.5538 24.19 65.0918 24.036 64.5412 24.036ZM72.2273 30.14C71.6299 30.14 71.0839 29.986 70.5893 29.678C70.0946 29.37 69.6979 28.9453 69.3993 28.404C69.1099 27.8533 68.9653 27.2233 68.9653 26.514C68.9653 25.8047 69.1146 25.1793 69.4133 24.638C69.7119 24.0873 70.1133 23.658 70.6173 23.35C71.1306 23.0327 71.7093 22.874 72.3533 22.874C73.0533 22.874 73.5993 23.0373 73.9913 23.364C74.3833 23.6907 74.6586 24.1293 74.8173 24.68C74.9759 25.2307 75.0553 25.842 75.0553 26.514C75.0553 26.8873 75.0086 27.284 74.9153 27.704C74.8219 28.124 74.6679 28.5207 74.4533 28.894C74.2479 29.2673 73.9633 29.5707 73.5993 29.804C73.2353 30.028 72.7779 30.14 72.2273 30.14ZM72.6053 28.964C73.1093 28.964 73.5293 28.8567 73.8653 28.642C74.2106 28.4273 74.4673 28.1333 74.6353 27.76C74.8126 27.3867 74.9013 26.9713 74.9013 26.514C74.9013 26.0193 74.8126 25.59 74.6353 25.226C74.4579 24.8527 74.1966 24.5633 73.8513 24.358C73.5153 24.1527 73.0999 24.05 72.6053 24.05C71.8866 24.05 71.3266 24.2833 70.9253 24.75C70.5239 25.2073 70.3233 25.7953 70.3233 26.514C70.3233 26.9993 70.4213 27.4287 70.6173 27.802C70.8133 28.166 71.0839 28.4507 71.4293 28.656C71.7746 28.8613 72.1666 28.964 72.6053 28.964ZM74.9013 23.014H76.2593V30H75.0133C75.0133 30 75.0039 29.916 74.9853 29.748C74.9666 29.5707 74.9479 29.3607 74.9293 29.118C74.9106 28.8753 74.9013 28.6607 74.9013 28.474V23.014ZM78.0109 23.014H79.3689V30H78.0109V23.014ZM81.7489 24.218C81.2636 24.218 80.8482 24.33 80.5029 24.554C80.1576 24.778 79.8869 25.0533 79.6909 25.38C79.4949 25.6973 79.3596 26.01 79.2849 26.318L79.2709 25.52C79.2802 25.4267 79.3082 25.2773 79.3549 25.072C79.4016 24.8667 79.4809 24.638 79.5929 24.386C79.7049 24.134 79.8542 23.896 80.0409 23.672C80.2276 23.4387 80.4609 23.2473 80.7409 23.098C81.0209 22.9487 81.3569 22.874 81.7489 22.874V24.218ZM89.8621 27.326C89.8061 27.914 89.6195 28.4227 89.3021 28.852C88.9848 29.272 88.5741 29.594 88.0701 29.818C87.5661 30.042 87.0015 30.154 86.3761 30.154C85.6855 30.154 85.0508 30.014 84.4721 29.734C83.9028 29.4447 83.4455 29.0293 83.1001 28.488C82.7641 27.9373 82.5961 27.284 82.5961 26.528C82.5961 25.7627 82.7641 25.1093 83.1001 24.568C83.4455 24.0173 83.9028 23.5973 84.4721 23.308C85.0508 23.0187 85.6855 22.874 86.3761 22.874C87.0015 22.874 87.5615 22.986 88.0561 23.21C88.5601 23.434 88.9661 23.756 89.2741 24.176C89.5915 24.5867 89.7875 25.086 89.8621 25.674H88.6161C88.4575 25.1607 88.1775 24.7593 87.7761 24.47C87.3748 24.1807 86.9081 24.036 86.3761 24.036C85.9468 24.036 85.5455 24.134 85.1721 24.33C84.8081 24.5167 84.5141 24.7967 84.2901 25.17C84.0661 25.534 83.9541 25.9867 83.9541 26.528C83.9541 27.0507 84.0615 27.4987 84.2761 27.872C84.5001 28.236 84.7941 28.5113 85.1581 28.698C85.5315 28.8847 85.9375 28.978 86.3761 28.978C86.9735 28.978 87.4588 28.8333 87.8321 28.544C88.2148 28.2547 88.4808 27.8487 88.6301 27.326H89.8621ZM96.705 30V25.8C96.705 25.4267 96.6443 25.1187 96.523 24.876C96.411 24.6333 96.229 24.4513 95.977 24.33C95.7343 24.1993 95.4216 24.134 95.039 24.134C94.6376 24.134 94.2643 24.232 93.919 24.428C93.5736 24.6147 93.2936 24.8667 93.079 25.184C92.8643 25.5013 92.7336 25.8607 92.687 26.262L92.673 25.464C92.7196 25.1 92.8176 24.764 92.967 24.456C93.1256 24.1387 93.3216 23.8633 93.555 23.63C93.7976 23.3873 94.0776 23.2007 94.395 23.07C94.7216 22.9393 95.0763 22.874 95.459 22.874C95.851 22.874 96.2056 22.93 96.523 23.042C96.8403 23.1447 97.111 23.308 97.335 23.532C97.5683 23.7467 97.7456 24.0127 97.867 24.33C97.9976 24.638 98.063 24.9927 98.063 25.394V30H96.705ZM91.413 30V20.214H92.771V30H91.413ZM104.238 26.878V25.674H107.514C108.055 25.674 108.489 25.5153 108.816 25.198C109.152 24.8713 109.32 24.442 109.32 23.91C109.32 23.3593 109.152 22.93 108.816 22.622C108.489 22.3047 108.055 22.146 107.514 22.146H104.462V30H103.09V20.914H107.458C107.906 20.914 108.326 20.9793 108.718 21.11C109.11 21.2313 109.45 21.418 109.74 21.67C110.038 21.922 110.267 22.2347 110.426 22.608C110.594 22.9813 110.678 23.4153 110.678 23.91C110.678 24.4047 110.594 24.8387 110.426 25.212C110.267 25.576 110.038 25.884 109.74 26.136C109.45 26.3787 109.11 26.5653 108.718 26.696C108.326 26.8173 107.906 26.878 107.458 26.878H104.238ZM112.204 23.014H113.562V30H112.204V23.014ZM115.942 24.218C115.457 24.218 115.042 24.33 114.696 24.554C114.351 24.778 114.08 25.0533 113.884 25.38C113.688 25.6973 113.553 26.01 113.478 26.318L113.464 25.52C113.474 25.4267 113.502 25.2773 113.548 25.072C113.595 24.8667 113.674 24.638 113.786 24.386C113.898 24.134 114.048 23.896 114.234 23.672C114.421 23.4387 114.654 23.2473 114.934 23.098C115.214 22.9487 115.55 22.874 115.942 22.874V24.218ZM120.555 30.154C119.865 30.154 119.23 30.0093 118.651 29.72C118.082 29.4307 117.629 29.0153 117.293 28.474C116.957 27.9327 116.789 27.284 116.789 26.528C116.789 25.7627 116.957 25.1093 117.293 24.568C117.629 24.0173 118.082 23.5973 118.651 23.308C119.23 23.0187 119.865 22.874 120.555 22.874C121.246 22.874 121.871 23.0187 122.431 23.308C123.001 23.5973 123.453 24.0173 123.789 24.568C124.125 25.1093 124.293 25.7627 124.293 26.528C124.293 27.284 124.125 27.9327 123.789 28.474C123.453 29.0153 123.001 29.4307 122.431 29.72C121.871 30.0093 121.246 30.154 120.555 30.154ZM120.555 28.978C120.975 28.978 121.363 28.8847 121.717 28.698C122.081 28.5113 122.371 28.236 122.585 27.872C122.809 27.4987 122.921 27.0507 122.921 26.528C122.921 25.996 122.809 25.548 122.585 25.184C122.371 24.8107 122.081 24.526 121.717 24.33C121.363 24.134 120.975 24.036 120.555 24.036C120.126 24.036 119.729 24.134 119.365 24.33C119.001 24.5167 118.707 24.7967 118.483 25.17C118.259 25.534 118.147 25.9867 118.147 26.528C118.147 27.0507 118.255 27.4987 118.469 27.872C118.693 28.236 118.987 28.5113 119.351 28.698C119.725 28.8847 120.126 28.978 120.555 28.978ZM128.583 30.14C127.976 30.14 127.425 29.986 126.931 29.678C126.436 29.37 126.044 28.9453 125.755 28.404C125.465 27.8533 125.321 27.2233 125.321 26.514C125.321 25.8047 125.461 25.1793 125.741 24.638C126.021 24.0873 126.403 23.658 126.889 23.35C127.383 23.0327 127.948 22.874 128.583 22.874C129.143 22.874 129.605 22.9673 129.969 23.154C130.333 23.3407 130.617 23.602 130.823 23.938C131.037 24.274 131.187 24.6613 131.271 25.1C131.364 25.5387 131.411 26.01 131.411 26.514C131.411 26.8873 131.364 27.284 131.271 27.704C131.177 28.124 131.023 28.5207 130.809 28.894C130.603 29.2673 130.319 29.5707 129.955 29.804C129.591 30.028 129.133 30.14 128.583 30.14ZM128.961 28.964C129.465 28.964 129.885 28.8567 130.221 28.642C130.566 28.4273 130.823 28.1333 130.991 27.76C131.168 27.3867 131.257 26.9713 131.257 26.514C131.257 26.0193 131.168 25.59 130.991 25.226C130.813 24.8527 130.552 24.5633 130.207 24.358C129.871 24.1527 129.455 24.05 128.961 24.05C128.242 24.05 127.682 24.2833 127.281 24.75C126.879 25.2073 126.679 25.7953 126.679 26.514C126.679 26.9993 126.777 27.4287 126.973 27.802C127.169 28.166 127.439 28.4507 127.785 28.656C128.13 28.8613 128.522 28.964 128.961 28.964ZM131.257 20.214H132.615V30H131.369C131.341 29.7947 131.313 29.5427 131.285 29.244C131.266 28.936 131.257 28.6793 131.257 28.474V20.214ZM141.262 30H139.904V23.014H141.262V30ZM139.988 26.71L140.002 27.13C139.984 27.2513 139.946 27.4333 139.89 27.676C139.844 27.9093 139.76 28.166 139.638 28.446C139.526 28.726 139.368 28.9967 139.162 29.258C138.966 29.5193 138.714 29.734 138.406 29.902C138.098 30.07 137.72 30.154 137.272 30.154C136.964 30.154 136.652 30.112 136.334 30.028C136.026 29.944 135.742 29.804 135.48 29.608C135.219 29.412 135.009 29.146 134.85 28.81C134.692 28.4647 134.612 28.0353 134.612 27.522V23.014H135.97V27.228C135.97 27.6573 136.04 27.9933 136.18 28.236C136.32 28.4787 136.512 28.6513 136.754 28.754C137.006 28.8567 137.291 28.908 137.608 28.908C138.094 28.908 138.504 28.7913 138.84 28.558C139.176 28.3247 139.438 28.04 139.624 27.704C139.811 27.3587 139.932 27.0273 139.988 26.71ZM149.909 27.326C149.853 27.914 149.666 28.4227 149.349 28.852C149.032 29.272 148.621 29.594 148.117 29.818C147.613 30.042 147.048 30.154 146.423 30.154C145.732 30.154 145.098 30.014 144.519 29.734C143.95 29.4447 143.492 29.0293 143.147 28.488C142.811 27.9373 142.643 27.284 142.643 26.528C142.643 25.7627 142.811 25.1093 143.147 24.568C143.492 24.0173 143.95 23.5973 144.519 23.308C145.098 23.0187 145.732 22.874 146.423 22.874C147.048 22.874 147.608 22.986 148.103 23.21C148.607 23.434 149.013 23.756 149.321 24.176C149.638 24.5867 149.834 25.086 149.909 25.674H148.663C148.504 25.1607 148.224 24.7593 147.823 24.47C147.422 24.1807 146.955 24.036 146.423 24.036C145.994 24.036 145.592 24.134 145.219 24.33C144.855 24.5167 144.561 24.7967 144.337 25.17C144.113 25.534 144.001 25.9867 144.001 26.528C144.001 27.0507 144.108 27.4987 144.323 27.872C144.547 28.236 144.841 28.5113 145.205 28.698C145.578 28.8847 145.984 28.978 146.423 28.978C147.02 28.978 147.506 28.8333 147.879 28.544C148.262 28.2547 148.528 27.8487 148.677 27.326H149.909ZM150.816 23.014H155.366V24.19H150.816V23.014ZM152.412 21.166H153.77V30H152.412V21.166ZM157.785 28.558V30H156.105V28.558H157.785ZM161.23 28.558V30H159.55V28.558H161.23ZM164.675 28.558V30H162.995V28.558H164.675Z" fill="#AAAAAA"/>
<path fill-rule="evenodd" clip-rule="evenodd" d="M28.3661 17C32.434 17 35.7323 20.2975 35.7323 24.3661C35.7323 28.4348 32.434 31.7323 28.3661 31.7323C24.2975 31.7323 21 28.4348 21 24.3661C21 20.2975 24.2975 17 28.3661 17Z" stroke="#AAAAAA" stroke-width="1.5" stroke-linecap="round" stroke-linejoin="round"/>
<path fill-rule="evenodd" clip-rule="evenodd" d="M35.7862 30.572C36.4565 30.572 36.9998 31.1161 36.9998 31.7856C36.9998 32.4568 36.4565 33.0001 35.7862 33.0001C35.1158 33.0001 34.5717 32.4568 34.5717 31.7856C34.5717 31.1161 35.1158 30.572 35.7862 30.572Z" stroke="#AAAAAA" stroke-width="1.5" stroke-linecap="round" stroke-linejoin="round"/>
</svg>
