<?xml version="1.0" encoding="UTF-8"?>
<svg id="Layer_2" data-name="Layer 2" xmlns="http://www.w3.org/2000/svg" viewBox="0 0 20 20.05">
  <g id="Layer_1-2" data-name="Layer 1">
    <path d="M20,11.69c0,2.05-1.41,3.78-3.27,4.18-.72,1.32-1.72,2.4-2.89,3.14v.04c0,.55-.45,1-1,1-.27,0-.51-.11-.69-.28-.19-.18-.31-.44-.31-.72,0-.06,0-.11,.02-.16,.08-.48,.48-.84,.98-.84,.22,0,.41,.06,.56,.17,1.11-.67,2.05-1.69,2.73-2.94v-2.47c.87-1.22,1.37-2.71,1.37-4.31,0-2.29-1.02-4.33-2.63-5.7-.03-.03-.07-.07-.11-.1-1.3-1.06-2.95-1.7-4.76-1.7s-3.42,.62-4.71,1.66c-.05,.03-.1,.08-.15,.13-1.62,1.36-2.64,3.41-2.64,5.71,0,1.61,.51,3.1,1.38,4.32v3.13h-.04c-2.15-.14-3.84-2-3.84-4.26,0-1.34,.58-2.53,1.5-3.31C1.56,3.74,5.33,0,10,0s8.44,3.74,8.5,8.39c.91,.78,1.5,1.97,1.5,3.3Z"/>
  </g>
</svg>