<svg width="16" height="16" viewBox="0 0 16 16" fill="none" xmlns="http://www.w3.org/2000/svg">
<path fill-rule="evenodd" clip-rule="evenodd" d="M0 8C0 3.5848 3.584 0 8 0C12.424 0 16 3.5848 16 8C16 12.4168 12.424 16 8 16C3.584 16 0 12.4168 0 8ZM7.29609 4.96806C7.29609 4.58486 7.61609 4.26406 8.00009 4.26406C8.38409 4.26406 8.69609 4.58486 8.69609 4.96806V8.50406C8.69609 8.88886 8.38409 9.20006 8.00009 9.20006C7.61609 9.20006 7.29609 8.88886 7.29609 8.50406V4.96806ZM8.00791 11.7449C7.61591 11.7449 7.30391 11.4249 7.30391 11.0409C7.30391 10.6569 7.61591 10.3449 7.99991 10.3449C8.39191 10.3449 8.70391 10.6569 8.70391 11.0409C8.70391 11.4249 8.39191 11.7449 8.00791 11.7449Z" fill="white"/>
</svg>
