<?xml version="1.0" encoding="UTF-8"?>
<svg id="Layer_2" data-name="Layer 2" xmlns="http://www.w3.org/2000/svg" viewBox="0 0 20 18">
  <g id="Layer_1-2" data-name="Layer 1">
    <g>
      <path d="M19,4.77c-.53-.48-1.23-.77-1.99-.77H1v-.67c0-1.29,1.04-2.33,2.33-2.33h13.25V0H2.99C1.34,0,0,1.34,0,2.99v15.01H17.01c1.65,0,2.99-1.34,2.99-2.99V7c0-.89-.38-1.69-1-2.23Zm0,9.9c0,1.29-1.04,2.33-2.33,2.33H1V5h15.67c1.29,0,2.33,1.05,2.33,2.34v7.33Z"/>
      <circle cx="16.58" cy="9.5" r="1"/>
    </g>
  </g>
</svg>